HIERARCHY
ROOT root
{
  OFFSET 0 98.6856 0
  CHANNELS 6 Xposition Yposition Zposition Zrotation Xrotation Yrotation
  JOINT torso_1
  {
    OFFSET 0 5.37224 -1.21793
    CHANNELS 6 Xposition Yposition Zposition Zrotation Xrotation Yrotation
    JOINT torso_2
    {
      OFFSET 0 5.94127 1.13336
      CHANNELS 6 Xposition Yposition Zposition Zrotation Xrotation Yrotation
      JOINT torso_3
      {
        OFFSET -1.08535e-17 6.33601 0.121658
        CHANNELS 6 Xposition Yposition Zposition Zrotation Xrotation Yrotation
        JOINT torso_4
        {
          OFFSET -1.16841e-17 6.88189 -0.46916
          CHANNELS 6 Xposition Yposition Zposition Zrotation Xrotation Yrotation
          JOINT torso_5
          {
            OFFSET -2.08699e-17 8.0451 -1.59297
            CHANNELS 6 Xposition Yposition Zposition Zrotation Xrotation Yrotation
            JOINT torso_6
            {
              OFFSET -2.67949e-17 10.0463 -0.967353
              CHANNELS 6 Xposition Yposition Zposition Zrotation Xrotation Yrotation
              JOINT torso_7
              {
                OFFSET -3.07187e-17 11.1612 1.66806
                CHANNELS 6 Xposition Yposition Zposition Zrotation Xrotation Yrotation
                JOINT neck_1
                {
                  OFFSET -1.36661e-17 5.06312 0.756688
                  CHANNELS 6 Xposition Yposition Zposition Zrotation Xrotation Yrotation
                  JOINT neck_2
                  {
                    OFFSET -1.91632e-17 5.09976 0.446172
                    CHANNELS 6 Xposition Yposition Zposition Zrotation Xrotation Yrotation
                    JOINT head
                    {
                      OFFSET -2.12574e-17 5.10962 0.809285
                      CHANNELS 6 Xposition Yposition Zposition Zrotation Xrotation Yrotation
                      End Site
                      {
                        OFFSET 0 0.1 0
                      }
                    }
                  }
                }
                JOINT l_shoulder
                {
                  OFFSET 1.30426 -8.04703 7.96922
                  CHANNELS 6 Xposition Yposition Zposition Zrotation Xrotation Yrotation
                  JOINT l_up_arm
                  {
                    OFFSET 13.7035 3.43734 -3.45766
                    CHANNELS 6 Xposition Yposition Zposition Zrotation Xrotation Yrotation
                    JOINT l_low_arm
                    {
                      OFFSET 30.8964 0.0632652 0.14496
                      CHANNELS 6 Xposition Yposition Zposition Zrotation Xrotation Yrotation
                      JOINT l_hand
                      {
                        OFFSET 25.6348 0.0524902 0.120274
                        CHANNELS 6 Xposition Yposition Zposition Zrotation Xrotation Yrotation
                        End Site
                        {
                          OFFSET 0.1 0 0
                        }
                      }
                    }
                  }
                }
                JOINT r_shoulder
                {
                  OFFSET -1.30426 -8.04702 7.96912
                  CHANNELS 6 Xposition Yposition Zposition Zrotation Xrotation Yrotation
                  JOINT r_up_arm
                  {
                    OFFSET -13.7035 3.43734 -3.45766
                    CHANNELS 6 Xposition Yposition Zposition Zrotation Xrotation Yrotation
                    JOINT r_low_arm
                    {
                      OFFSET -30.8964 0.0632652 0.14496
                      CHANNELS 6 Xposition Yposition Zposition Zrotation Xrotation Yrotation
                      JOINT r_hand
                      {
                        OFFSET -25.6348 0.0524901 0.120274
                        CHANNELS 6 Xposition Yposition Zposition Zrotation Xrotation Yrotation
                        End Site
                        {
                          OFFSET -0.1 0 0
                        }
                      }
                    }
                  }
                }
              }
            }
          }
        }
      }
    }
  }
  JOINT l_up_leg
  {
    OFFSET 9.77065 -4.44866 2.1502
    CHANNELS 6 Xposition Yposition Zposition Zrotation Xrotation Yrotation
    JOINT l_low_leg
    {
      OFFSET -0.901622 -41.0132 -0.693059
      CHANNELS 6 Xposition Yposition Zposition Zrotation Xrotation Yrotation
      JOINT l_foot
      {
        OFFSET -2.46068 -42.7371 -6.39839
        CHANNELS 6 Xposition Yposition Zposition Zrotation Xrotation Yrotation
        JOINT l_toes
        {
          OFFSET 0.82413 -10.4558 13.2182
          CHANNELS 6 Xposition Yposition Zposition Zrotation Xrotation Yrotation
          End Site
          {
            OFFSET 0 0 0.1
          }
        }
      }
    }
  }
  JOINT r_up_leg
  {
    OFFSET -9.77065 -4.44866 2.1502
    CHANNELS 6 Xposition Yposition Zposition Zrotation Xrotation Yrotation
    JOINT r_low_leg
    {
      OFFSET 0.901622 -41.0132 -0.693059
      CHANNELS 6 Xposition Yposition Zposition Zrotation Xrotation Yrotation
      JOINT r_foot
      {
        OFFSET 2.46068 -42.7371 -6.39839
        CHANNELS 6 Xposition Yposition Zposition Zrotation Xrotation Yrotation
        JOINT r_toes
        {
          OFFSET -0.82413 -10.4558 13.2182
          CHANNELS 6 Xposition Yposition Zposition Zrotation Xrotation Yrotation
          End Site
          {
            OFFSET 0 0 0.1
          }
        }
      }
    }
  }
}
MOTION
Frames: 4
Frame Time: 0.02
6.01242 97.4524 -83.5892 3.17429 8.97788 -27.5169 0 5.37224 -1.21793 -1.84588 -2.15947 -1.21045 0 5.94127 1.13336 -1.06981 -1.47796 -1.5421 -1.08535e-17 6.33601 0.121658 -0.516837 -0.771423 -1.45284 -1.16841e-17 6.88189 -0.46916 0.00257068 0.203873 -1.59229 -2.08699e-17 8.0451 -1.59297 0.0900785 1.27675 -1.52772 -2.67949e-17 10.0463 -0.967353 0.175405 1.49107 -1.49051 -3.07187e-17 11.1612 1.66806 0.00521549 0.130213 0.0205218 -1.36661e-17 5.06312 0.756688 1.83207 -2.92598 10.1629 -1.91632e-17 5.09976 0.446172 -0.0199228 -5.78266 4.46835 -2.12574e-17 5.10962 0.809285 -2.15301 -4.07174 1.67035 1.30426 -8.04703 7.96922 7.54782 1.41721 1.4456 13.7035 3.43734 -3.45766 -76.8883 46.5365 -11.4465 30.8964 0.0632652 0.14496 11.4697 -8.3722 -72.7618 25.6348 0.0524902 0.120274 -8.1887 -52.7183 -8.75415 -1.30426 -8.04702 7.96912 -7.3243 4.07768 -0.25732 -13.7035 3.43734 -3.45766 95.2578 41.6482 -11.5444 -30.8964 0.0632652 0.14496 -8.27819 -3.28661 43.8442 -25.6348 0.0524901 0.120274 1.91172 -35.2471 1.2339 9.77065 -4.44866 2.1502 -5.37136 -0.685207 -40.6405 -0.901622 -41.0132 -0.693059 -4.0278 14.8156 0.263673 -2.46068 -42.7371 -6.39839 -4.26465 3.21729 16.4261 0.82413 -10.4558 13.2182 -1.93815e-15 -8.82107e-16 9.93923e-17 -9.77065 -4.44866 2.1502 11.1113 -31.906 46.3966 0.901622 -41.0132 -0.693059 4.91132 17.9014 -0.458636 2.46068 -42.7371 -6.39839 7.33432 2.36688 -15.7546 -0.82413 -10.4558 13.2182 -5.96354e-16 -5.59082e-16 -1.27471e-14 
4.55264 97.0822 -81.6262 2.55877 8.639 -25.0445 0 5.37224 -1.21793 -1.83629 -1.9667 -1.18018 0 5.94127 1.13336 -1.10186 -1.34371 -1.50147 -1.08535e-17 6.33601 0.121658 -0.558058 -0.697726 -1.40997 -1.16841e-17 6.88189 -0.46916 -0.0308649 0.15511 -1.53989 -2.08699e-17 8.0451 -1.59297 0.0872786 1.12908 -1.45775 -2.67949e-17 10.0463 -0.967353 0.214981 1.30868 -1.40841 -3.07187e-17 11.1612 1.66806 0.00555894 0.131114 0.0229548 -1.36661e-17 5.06312 0.756688 1.78134 -3.07174 9.43305 -1.91632e-17 5.09976 0.446172 0.394439 -5.39599 4.1527 -2.12574e-17 5.10962 0.809285 -1.55116 -3.95357 1.35108 1.30426 -8.04703 7.96922 7.7936 1.62543 1.48692 13.7035 3.43734 -3.45766 -77.6654 47.5241 -11.5175 30.8964 0.0632652 0.14496 11.3157 -7.921 -70.4875 25.6348 0.0524902 0.120274 -8.10595 -52.2998 -8.46465 -1.30426 -8.04702 7.96912 -6.88295 4.25223 -0.214848 -13.7035 3.43734 -3.45766 95.3212 40.8859 -11.7098 -30.8964 0.0632652 0.14496 -8.39127 -3.39534 44.5931 -25.6348 0.0524901 0.120274 2.02841 -35.0185 1.54881 9.77065 -4.44866 2.1502 -4.89049 0.243856 -40.0744 -0.901622 -41.0132 -0.693059 -4.46953 16.3697 0.355251 -2.46068 -42.7371 -6.39839 -4.88767 4.38643 16.5697 0.82413 -10.4558 13.2182 5.2181e-15 -5.71506e-16 -2.11209e-16 -9.77065 -4.44866 2.1502 11.3026 -31.761 45.259 0.901622 -41.0132 -0.693059 5.29293 19.2051 -0.557257 2.46068 -42.7371 -6.39839 6.6825 2.02095 -15.7123 -0.82413 -10.4558 13.2182 1.98785e-16 -5.96354e-16 -1.27719e-14 
3.10299 96.501 -79.5991 2.04401 8.22017 -22.8168 0 5.37224 -1.21793 -1.76773 -1.74196 -1.12875 0 5.94127 1.13336 -1.11351 -1.20616 -1.41293 -1.08535e-17 6.33601 0.121658 -0.602776 -0.606962 -1.31754 -1.16841e-17 6.88189 -0.46916 -0.0867663 0.128715 -1.42978 -2.08699e-17 8.0451 -1.59297 0.0663461 0.989974 -1.32841 -2.67949e-17 10.0463 -0.967353 0.241574 1.14994 -1.25732 -3.07187e-17 11.1612 1.66806 0.00567425 0.131231 0.0258304 -1.36661e-17 5.06312 0.756688 1.74836 -3.4608 8.69904 -1.91632e-17 5.09976 0.446172 0.771599 -4.99763 3.83969 -2.12574e-17 5.10962 0.809285 -0.836345 -3.65228 0.998577 1.30426 -8.04703 7.96922 8.17787 1.8802 1.45697 13.7035 3.43734 -3.45766 -78.8508 48.2101 -11.2814 30.8964 0.0632652 0.14496 11.1045 -7.38107 -67.7236 25.6348 0.0524902 0.120274 -7.62819 -50.8852 -7.92802 -1.30426 -8.04702 7.96912 -6.18361 4.45429 -0.139542 -13.7035 3.43734 -3.45766 95.1107 39.798 -11.5108 -30.8964 0.0632652 0.14496 -8.44497 -3.44798 44.9521 -25.6348 0.0524901 0.120274 2.39572 -34.4398 2.12749 9.77065 -4.44866 2.1502 -4.497 0.674489 -38.3844 -0.901622 -41.0132 -0.693059 -5.16643 18.775 0.52362 -2.46068 -42.7371 -6.39839 -5.17343 5.85104 16.4507 0.82413 -10.4558 13.2182 -5.91384e-15 -1.05604e-15 2.73329e-16 -9.77065 -4.44866 2.1502 11.6518 -31.582 43.8531 0.901622 -41.0132 -0.693059 5.97417 21.4841 -0.75424 2.46068 -42.7371 -6.39839 5.4385 1.16364 -15.626 -0.82413 -10.4558 13.2182 -9.93923e-16 -5.46658e-16 -1.27222e-14 
1.64971 95.7411 -77.5169 1.66503 7.77582 -20.8121 0 5.37224 -1.21793 -1.6868 -1.50622 -1.02963 0 5.94127 1.13336 -1.13103 -1.07331 -1.26475 -1.08535e-17 6.33601 0.121658 -0.662242 -0.513028 -1.16649 -1.16841e-17 6.88189 -0.46916 -0.167907 0.113596 -1.25596 -2.08699e-17 8.0451 -1.59297 0.0296004 0.866609 -1.13271 -2.67949e-17 10.0463 -0.967353 0.271695 1.01427 -1.04132 -3.07187e-17 11.1612 1.66806 0.00619165 0.131418 0.0285835 -1.36661e-17 5.06312 0.756688 1.7352 -3.84079 8.09972 -1.91632e-17 5.09976 0.446172 1.13295 -4.63442 3.58782 -2.12574e-17 5.10962 0.809285 -0.141324 -3.34888 0.367303 1.30426 -8.04703 7.96922 8.49403 2.12145 1.38629 13.7035 3.43734 -3.45766 -80.1742 48.6521 -10.9699 30.8964 0.0632652 0.14496 10.809 -6.73077 -64.3204 25.6348 0.0524902 0.120274 -7.00977 -48.7659 -7.33982 -1.30426 -8.04702 7.96912 -5.18561 4.62354 -0.0124677 -13.7035 3.43734 -3.45766 94.4655 38.6645 -10.8771 -30.8964 0.0632652 0.14496 -8.4435 -3.44654 44.9423 -25.6348 0.0524901 0.120274 2.92473 -33.9933 2.88005 9.77065 -4.44866 2.1502 -4.15343 0.41107 -36.3853 -0.901622 -41.0132 -0.693059 -6.23475 22.3386 0.836511 -2.46068 -42.7371 -6.39839 -5.18181 7.27979 16.1664 0.82413 -10.4558 13.2182 -1.93815e-15 -8.82107e-16 9.93923e-17 -9.77065 -4.44866 2.1502 11.5719 -30.9172 41.9804 0.901622 -41.0132 -0.693059 6.53401 23.3077 -0.935608 2.46068 -42.7371 -6.39839 3.85807 -0.389826 -15.4563 -0.82413 -10.4558 13.2182 -9.93923e-16 -5.46658e-16 -1.27222e-14 
